<svg width="1400" height="260" viewBox="0 0 1400 260" fill="none" xmlns="http://www.w3.org/2000/svg">
<path d="M119.394 67.737V72.823C119.394 75.366 118.274 76.283 116.494 76.283C114.714 76.283 113.595 75.366 113.595 72.823V53.596C113.595 51.053 114.715 50.086 116.495 50.086C118.275 50.086 119.394 51.053 119.394 53.596V57.411H124.684V53.952C124.684 48.255 121.835 45 116.342 45C110.848 45 108 48.255 108 53.952V72.467C108 78.164 110.848 81.42 116.342 81.42C121.835 81.42 124.684 78.164 124.684 72.467V67.737H119.394V67.737ZM140.503 45.407L146.2 81.013H140.554L139.587 74.553H132.721L131.754 81.013H126.617L132.314 45.407H140.503ZM136.078 51.714L133.433 69.721H138.824L136.18 51.713H136.079L136.078 51.714ZM166.19 81.013H160.493C160.188 80.097 159.984 79.537 159.984 76.638V71.043C159.984 67.737 158.865 66.516 156.322 66.516H154.389V81.013H148.794V45.407H157.238C163.036 45.407 165.528 48.103 165.528 53.597V56.394C165.528 60.056 164.358 62.396 161.866 63.566C164.664 64.837 165.579 67.482 165.579 71.196V76.689C165.579 78.419 165.63 79.69 166.189 81.013H166.19ZM157.085 50.493H154.389V61.43H156.576C158.662 61.43 159.933 60.515 159.933 57.666V54.156C159.933 51.613 159.069 50.494 157.085 50.494V50.493ZM183.242 45.407L188.939 81.013H183.293L182.327 74.553H175.46L174.494 81.013H169.356L175.053 45.407H183.243H183.242ZM178.817 51.714L176.172 69.721H181.564L178.919 51.713H178.817V51.714ZM194.115 45.407H188.469L193.962 81.013H202.304L207.797 45.407H202.66L198.438 74.45H198.336L194.115 45.407ZM221.213 45.407L226.91 81.013H221.264L220.298 74.553H213.431L212.464 81.013H207.327L213.024 45.407H221.213ZM216.788 51.714L214.143 69.721H219.535L216.89 51.713H216.788V51.714ZM242.252 81.013H248V45.407H243.015V66.719H242.913L237.267 45.407H230.248V81.013H235.284V55.223H235.385L242.252 81.013V81.013Z" fill="#9C9C9C"/>
<path fill-rule="evenodd" clip-rule="evenodd" d="M1155.02 58.8501H1157.74C1160.55 58.8501 1162.07 62.1421 1160.24 64.2751L1157.58 67.3751C1157.86 69.2137 1158.84 70.876 1160.3 72.0301C1161.76 73.1848 1163.6 73.7468 1165.46 73.6041C1167.31 73.4614 1169.05 72.6245 1170.32 71.2601C1171.58 69.8962 1172.29 68.1045 1172.29 66.2431C1172.29 65.9193 1172.36 65.5986 1172.48 65.2994C1172.6 65.0002 1172.78 64.7284 1173.01 64.4995C1173.24 64.2706 1173.51 64.0892 1173.81 63.9655C1174.11 63.8419 1174.43 63.7786 1174.76 63.7791C1175.41 63.7794 1176.04 64.039 1176.5 64.5009C1176.96 64.9628 1177.22 65.5894 1177.22 66.2431C1177.22 68.829 1176.41 71.3492 1174.9 73.4461C1173.76 75.0129 1172.28 76.2917 1170.56 77.1796C1168.84 78.0674 1166.94 78.5395 1165.01 78.5578C1163.07 78.5761 1161.16 78.1401 1159.43 77.2849C1157.7 76.4297 1156.19 75.1792 1155.02 73.6341C1153.86 75.1792 1152.35 76.4297 1150.62 77.2849C1148.88 78.1401 1146.97 78.5761 1145.04 78.5578C1143.11 78.5395 1141.2 78.0674 1139.49 77.1796C1137.77 76.2917 1136.28 75.0129 1135.15 73.4461C1133.64 71.3493 1132.82 68.8291 1132.82 66.2431C1132.82 65.9192 1132.89 65.5984 1133.01 65.2992C1133.13 64.9999 1133.31 64.728 1133.54 64.4991C1133.77 64.2702 1134.05 64.0888 1134.34 63.9653C1134.64 63.8417 1134.96 63.7784 1135.29 63.7791C1135.94 63.7794 1136.57 64.039 1137.03 64.5009C1137.49 64.9628 1137.75 65.5894 1137.76 66.2431C1137.75 68.1075 1138.46 69.9039 1139.72 71.2721C1140.67 72.2935 1141.88 73.0277 1143.23 73.3903C1144.57 73.753 1145.99 73.7295 1147.32 73.3226C1148.65 72.9156 1149.84 72.1417 1150.75 71.0895C1151.66 70.0374 1152.26 68.7497 1152.47 67.3741L1149.81 64.2741C1147.98 62.1421 1149.5 58.8511 1152.31 58.8511H1155.02V58.8501Z" fill="#9C9C9C"/>
<path d="M1166.54 52.2801C1167.18 52.2806 1167.82 52.1535 1168.42 51.9061C1169.02 51.6587 1169.56 51.2959 1170.02 50.8382C1170.48 50.3806 1170.84 49.8372 1171.09 49.239C1171.34 48.6408 1171.47 47.9997 1171.47 47.3521C1171.47 46.7045 1171.34 46.0633 1171.09 45.4651C1170.84 44.867 1170.48 44.3235 1170.02 43.8659C1169.56 43.4083 1169.02 43.0454 1168.42 42.798C1167.82 42.5506 1167.18 42.4235 1166.54 42.4241C1165.89 42.4237 1165.25 42.5508 1164.65 42.7983C1164.05 43.0457 1163.51 43.4086 1163.05 43.8663C1162.59 44.3239 1162.23 44.8673 1161.98 45.4654C1161.73 46.0635 1161.6 46.7046 1161.6 47.3521C1161.6 47.9996 1161.73 48.6407 1161.98 49.2388C1162.23 49.8369 1162.59 50.3803 1163.05 50.8379C1163.51 51.2955 1164.05 51.6584 1164.65 51.9059C1165.25 52.1533 1165.89 52.2805 1166.54 52.2801V52.2801ZM1143.51 52.2801C1144.16 52.2805 1144.8 52.1533 1145.4 51.9059C1146 51.6584 1146.54 51.2955 1147 50.8379C1147.46 50.3803 1147.82 49.8369 1148.07 49.2388C1148.32 48.6407 1148.44 47.9996 1148.45 47.3521C1148.44 46.7046 1148.32 46.0635 1148.07 45.4654C1147.82 44.8673 1147.46 44.3239 1147 43.8663C1146.54 43.4086 1146 43.0457 1145.4 42.7983C1144.8 42.5508 1144.16 42.4237 1143.51 42.4241C1142.86 42.4235 1142.22 42.5506 1141.62 42.798C1141.03 43.0454 1140.48 43.4083 1140.02 43.8659C1139.57 44.3235 1139.2 44.867 1138.95 45.4651C1138.71 46.0633 1138.58 46.7045 1138.58 47.3521C1138.58 47.9997 1138.71 48.6408 1138.95 49.239C1139.2 49.8372 1139.57 50.3806 1140.02 50.8382C1140.48 51.2959 1141.03 51.6587 1141.62 51.9061C1142.22 52.1535 1142.86 52.2806 1143.51 52.2801V52.2801ZM1211.45 43.6281C1212.21 43.6281 1212.83 43.8451 1213.32 44.2791C1213.81 44.7131 1214.05 45.2831 1214.05 45.9891V70.3241C1214.05 71.0571 1213.82 71.6401 1213.36 72.0741C1212.9 72.5081 1212.29 72.7251 1211.53 72.7251C1210.77 72.7251 1210.16 72.5081 1209.7 72.0751C1209.23 71.6401 1209 71.0571 1209 70.3251V69.3071C1208.41 70.4191 1207.54 71.2871 1206.4 71.9111C1205.29 72.5351 1204.01 72.8471 1202.57 72.8471C1200.86 72.8471 1199.33 72.4131 1197.98 71.5451C1196.65 70.6771 1195.6 69.4561 1194.84 67.8821C1194.11 66.2821 1193.74 64.4511 1193.74 62.3891C1193.74 60.3271 1194.11 58.5231 1194.84 56.9761C1195.6 55.4301 1196.65 54.2361 1197.98 53.3951C1199.3 52.5541 1200.84 52.1331 1202.57 52.1331C1204.01 52.1331 1205.29 52.4321 1206.4 53.0291C1207.48 53.5989 1208.38 54.4767 1208.96 55.5521V45.9071C1208.96 45.2291 1209.18 44.6861 1209.61 44.2791C1210.08 43.8451 1210.69 43.6281 1211.45 43.6281ZM1203.92 68.9001C1205.54 68.9001 1206.79 68.3441 1207.66 67.2311C1208.56 66.1191 1209 64.5311 1209 62.4701C1209 60.4081 1208.56 58.8341 1207.66 57.7501C1206.79 56.6371 1205.56 56.0801 1203.96 56.0801C1202.33 56.0801 1201.07 56.6231 1200.17 57.7091C1199.28 58.7941 1198.83 60.3541 1198.83 62.3891C1198.83 64.4511 1199.28 66.0511 1200.17 67.1911C1201.07 68.3311 1202.32 68.9001 1203.92 68.9001ZM1228.36 72.8471C1226.32 72.8471 1224.53 72.4271 1222.99 71.5861C1221.47 70.7451 1220.29 69.5381 1219.45 67.9641C1218.6 66.3901 1218.18 64.5591 1218.18 62.4701C1218.18 60.3811 1218.6 58.5631 1219.45 57.0171C1220.29 55.4431 1221.47 54.2361 1222.99 53.3951C1224.53 52.5541 1226.32 52.1331 1228.36 52.1331C1230.39 52.1331 1232.17 52.5531 1233.69 53.3951C1235.21 54.2117 1236.45 55.4759 1237.23 57.0171C1238.07 58.5631 1238.49 60.3811 1238.49 62.4701C1238.49 64.5601 1238.07 66.3901 1237.23 67.9641C1236.45 69.5052 1235.21 70.7694 1233.69 71.5861C1232.17 72.4261 1230.39 72.8471 1228.36 72.8471H1228.36ZM1228.32 68.9001C1229.97 68.9001 1231.23 68.3571 1232.1 67.2721C1232.97 66.1871 1233.4 64.5861 1233.4 62.4701C1233.4 60.3811 1232.97 58.7941 1232.1 57.7091C1231.23 56.5961 1229.99 56.0401 1228.36 56.0401C1226.73 56.0401 1225.47 56.5961 1224.57 57.7091C1223.71 58.7941 1223.27 60.3811 1223.27 62.4701C1223.27 64.5861 1223.7 66.1871 1224.57 67.2721C1225.44 68.3571 1226.69 68.9001 1228.32 68.9001ZM1259.54 52.2151C1260.3 52.2151 1260.91 52.4321 1261.37 52.8651C1261.83 53.3001 1262.06 53.8831 1262.06 54.6151V70.6901C1262.06 73.8101 1261.19 76.1701 1259.46 77.7721C1257.72 79.3721 1255.16 80.1721 1251.77 80.1721C1248.81 80.1721 1246.34 79.6171 1244.36 78.5041C1243.36 77.9071 1242.85 77.1881 1242.85 76.3471C1242.85 75.7501 1242.99 75.2761 1243.26 74.9231C1243.56 74.5701 1243.94 74.3931 1244.4 74.3931C1244.64 74.3931 1244.94 74.4481 1245.3 74.5571C1245.65 74.6921 1246.01 74.8421 1246.39 75.0041C1247.24 75.3656 1248.11 75.6781 1249 75.9401C1249.79 76.1571 1250.68 76.2661 1251.68 76.2661C1255.24 76.2661 1257.02 74.5301 1257.02 71.0561V68.4521C1256.42 69.5651 1255.55 70.4321 1254.41 71.0571C1253.27 71.6541 1251.97 71.9521 1250.5 71.9521C1248.77 71.9521 1247.22 71.5451 1245.86 70.7321C1244.54 69.8901 1243.49 68.7241 1242.73 67.2321C1241.97 65.7391 1241.59 64.0171 1241.59 62.0631C1241.59 60.1101 1241.96 58.3871 1242.69 56.8951C1243.45 55.3751 1244.51 54.2091 1245.86 53.3951C1247.22 52.5541 1248.77 52.1331 1250.5 52.1331C1251.97 52.1331 1253.27 52.4451 1254.41 53.0691C1255.52 53.6373 1256.43 54.5322 1257.02 55.6331V54.5751C1257.02 53.8701 1257.25 53.3001 1257.71 52.8651C1258.17 52.4321 1258.78 52.2151 1259.54 52.2151V52.2151ZM1251.85 68.0051C1253.48 68.0051 1254.74 67.4751 1255.63 66.4181C1256.55 65.3591 1257.02 63.9081 1257.02 62.0631C1257.02 60.1911 1256.55 58.7261 1255.63 57.6681C1254.74 56.6101 1253.48 56.0811 1251.85 56.0811C1250.25 56.0811 1248.98 56.6101 1248.06 57.6681C1247.14 58.7261 1246.68 60.1911 1246.68 62.0631C1246.68 63.9081 1247.14 65.3591 1248.06 66.4181C1248.98 67.4761 1250.25 68.0051 1251.85 68.0051ZM1274.53 72.8471C1271.58 72.8471 1269.19 72.2641 1267.37 71.0971C1266.5 70.5821 1266.07 69.8491 1266.07 68.9001C1266.07 68.3571 1266.22 67.9231 1266.52 67.5981C1266.82 67.2451 1267.18 67.0681 1267.62 67.0681C1268.08 67.0681 1268.71 67.2861 1269.53 67.7201C1270.4 68.1271 1271.18 68.4391 1271.89 68.6561C1272.62 68.8731 1273.54 68.9811 1274.66 68.9811C1275.8 68.9811 1276.68 68.7911 1277.3 68.4111C1277.95 68.0311 1278.28 67.5031 1278.28 66.8241C1278.28 66.3641 1278.14 65.9971 1277.87 65.7261C1277.63 65.4541 1277.17 65.2101 1276.49 64.9931C1275.84 64.7491 1274.83 64.4781 1273.48 64.1791C1271.06 63.6911 1269.32 62.9991 1268.27 62.1041C1267.24 61.2091 1266.72 59.9741 1266.72 58.4011C1266.72 57.2071 1267.07 56.1351 1267.78 55.1851C1268.48 54.2091 1269.45 53.4631 1270.67 52.9471C1271.92 52.4051 1273.33 52.1331 1274.9 52.1331C1276.04 52.1331 1277.14 52.2831 1278.2 52.5811C1279.21 52.8313 1280.17 53.2433 1281.05 53.8011C1281.91 54.3441 1282.35 55.0631 1282.35 55.9591C1282.35 56.5011 1282.2 56.9631 1281.9 57.3421C1281.6 57.6951 1281.23 57.8721 1280.8 57.8721C1280.5 57.8721 1280.2 57.8171 1279.91 57.7091C1279.55 57.5273 1279.2 57.3372 1278.85 57.1391C1278.06 56.7321 1277.38 56.4341 1276.81 56.2441C1276.24 56.0271 1275.54 55.9181 1274.7 55.9181C1273.69 55.9181 1272.89 56.1221 1272.3 56.5281C1271.73 56.9351 1271.44 57.4921 1271.44 58.1971C1271.44 58.8751 1271.74 59.3911 1272.34 59.7431C1272.93 60.0961 1274.09 60.4491 1275.8 60.8021C1277.61 61.1821 1279.04 61.6151 1280.07 62.1041C1281.1 62.5921 1281.83 63.2031 1282.27 63.9351C1282.73 64.6681 1282.96 65.6041 1282.96 66.7431C1282.96 68.5881 1282.18 70.0671 1280.64 71.1791C1279.12 72.2911 1277.08 72.8471 1274.53 72.8471V72.8471Z" fill="#9C9C9C"/>
<g clip-path="url(#clip0_12_32)">
<path d="M444.704 207.072C443.887 207.072 443.225 206.82 442.718 206.316C442.239 205.812 442 205.154 442 204.342V179.772C442 178.96 442.225 178.33 442.676 177.882C443.155 177.434 443.803 177.21 444.62 177.21H459.452C461.17 177.21 462.029 177.938 462.029 179.394C462.029 180.822 461.17 181.536 459.452 181.536H447.367V189.6H458.607C460.325 189.6 461.184 190.328 461.184 191.784C461.184 193.212 460.325 193.926 458.607 193.926H447.367V204.342C447.367 205.154 447.127 205.812 446.648 206.316C446.169 206.82 445.521 207.072 444.704 207.072V207.072ZM469.781 207.072C469.021 207.072 468.387 206.862 467.88 206.442C467.401 205.994 467.161 205.364 467.161 204.552V179.478C467.161 178.666 467.401 178.05 467.88 177.63C468.387 177.21 469.021 177 469.781 177C470.542 177 471.176 177.21 471.683 177.63C472.19 178.05 472.444 178.666 472.444 179.478V204.552C472.444 205.364 472.19 205.994 471.683 206.442C471.176 206.862 470.542 207.072 469.781 207.072V207.072ZM494.244 201.192C494.723 201.192 495.103 201.374 495.385 201.738C495.694 202.102 495.849 202.592 495.849 203.208C495.849 204.076 495.328 204.804 494.286 205.392C493.328 205.924 492.244 206.358 491.032 206.694C489.821 207.002 488.666 207.156 487.567 207.156C484.243 207.156 481.609 206.204 479.665 204.3C477.721 202.396 476.75 199.792 476.75 196.488C476.75 194.388 477.172 192.526 478.017 190.902C478.862 189.278 480.046 188.018 481.567 187.122C483.116 186.226 484.863 185.778 486.807 185.778C488.666 185.778 490.286 186.184 491.666 186.996C493.046 187.808 494.117 188.956 494.877 190.44C495.638 191.924 496.018 193.674 496.018 195.69C496.018 196.894 495.483 197.496 494.413 197.496H481.947C482.116 199.428 482.665 200.856 483.595 201.78C484.525 202.676 485.877 203.124 487.652 203.124C488.553 203.124 489.342 203.012 490.018 202.788C490.722 202.564 491.511 202.256 492.384 201.864C493.229 201.416 493.849 201.192 494.244 201.192V201.192ZM486.932 189.474C485.496 189.474 484.341 189.922 483.467 190.818C482.622 191.714 482.115 193.002 481.946 194.682H491.496C491.44 192.974 491.017 191.686 490.228 190.818C489.44 189.922 488.341 189.474 486.932 189.474V189.474ZM517.843 202.956C518.35 203.46 518.603 204.034 518.603 204.678C518.603 205.294 518.364 205.854 517.885 206.358C517.406 206.834 516.843 207.072 516.195 207.072C515.49 207.072 514.885 206.778 514.378 206.19L508.42 199.638L502.461 206.19C501.926 206.75 501.321 207.03 500.644 207.03C500.025 207.03 499.475 206.792 498.996 206.316C498.518 205.84 498.278 205.294 498.278 204.678C498.278 204.034 498.532 203.46 499.039 202.956L505.208 196.278L499.377 189.978C498.87 189.474 498.616 188.9 498.616 188.256C498.616 187.612 498.856 187.066 499.334 186.618C499.813 186.142 500.363 185.904 500.982 185.904C501.659 185.904 502.264 186.184 502.799 186.744L508.42 192.876L514.04 186.744C514.575 186.184 515.181 185.904 515.857 185.904C516.505 185.904 517.054 186.142 517.505 186.618C517.984 187.066 518.223 187.612 518.223 188.256C518.223 188.9 517.969 189.474 517.462 189.978L511.631 196.278L517.843 202.956V202.956ZM541.22 191.532C542.939 192.008 544.263 192.876 545.192 194.136C546.15 195.396 546.629 196.936 546.629 198.756C546.629 201.276 545.714 203.25 543.882 204.678C542.08 206.106 539.586 206.82 536.403 206.82H525.501C524.684 206.82 524.036 206.596 523.557 206.148C523.107 205.7 522.881 205.07 522.881 204.258V179.772C522.881 178.96 523.107 178.33 523.557 177.882C524.036 177.434 524.684 177.21 525.501 177.21H535.98C539.078 177.21 541.501 177.896 543.248 179.268C545.022 180.612 545.91 182.502 545.91 184.938C545.91 186.506 545.487 187.864 544.642 189.012C543.825 190.16 542.684 191 541.219 191.532H541.22ZM528.205 189.684H535.093C538.84 189.684 540.713 188.298 540.713 185.526C540.713 184.126 540.248 183.09 539.319 182.418C538.389 181.746 536.981 181.41 535.093 181.41H528.205V189.684V189.684ZM535.812 202.62C537.784 202.62 539.22 202.27 540.122 201.57C541.023 200.87 541.474 199.778 541.474 198.294C541.474 196.81 541.009 195.704 540.079 194.976C539.178 194.248 537.755 193.884 535.812 193.884H528.205V202.62H535.812ZM553.881 207.072C553.12 207.072 552.487 206.862 551.98 206.442C551.501 205.994 551.261 205.364 551.261 204.552V179.478C551.261 178.666 551.501 178.05 551.98 177.63C552.487 177.21 553.12 177 553.881 177C554.642 177 555.276 177.21 555.783 177.63C556.29 178.05 556.543 178.666 556.543 179.478V204.552C556.543 205.364 556.29 205.994 555.783 206.442C555.276 206.862 554.642 207.072 553.881 207.072V207.072ZM571.413 207.156C569.301 207.156 567.441 206.722 565.836 205.854C564.258 204.986 563.033 203.74 562.159 202.116C561.286 200.492 560.849 198.602 560.849 196.446C560.849 194.29 561.286 192.414 562.159 190.818C563.033 189.194 564.258 187.948 565.836 187.08C567.441 186.212 569.301 185.778 571.413 185.778C573.526 185.778 575.371 186.212 576.949 187.08C578.53 187.923 579.813 189.228 580.625 190.818C581.498 192.414 581.935 194.29 581.935 196.446C581.935 198.602 581.498 200.492 580.625 202.116C579.813 203.706 578.53 205.011 576.949 205.854C575.371 206.722 573.526 207.156 571.413 207.156ZM571.371 203.082C573.089 203.082 574.399 202.522 575.301 201.402C576.202 200.282 576.653 198.63 576.653 196.446C576.653 194.29 576.202 192.652 575.301 191.532C574.399 190.384 573.104 189.81 571.413 189.81C569.723 189.81 568.413 190.384 567.484 191.532C566.582 192.652 566.131 194.29 566.131 196.446C566.131 198.63 566.582 200.282 567.484 201.402C568.385 202.522 569.681 203.082 571.371 203.082ZM603.79 185.862C604.578 185.862 605.212 186.086 605.691 186.534C606.17 186.982 606.409 187.584 606.409 188.34V204.93C606.409 208.15 605.508 210.586 603.705 212.238C601.902 213.89 599.24 214.716 595.719 214.716C592.648 214.716 590.084 214.142 588.028 212.994C586.986 212.378 586.465 211.636 586.465 210.768C586.465 210.152 586.605 209.662 586.887 209.298C587.197 208.934 587.591 208.752 588.07 208.752C588.324 208.752 588.634 208.808 589 208.92C589.366 209.06 589.746 209.214 590.141 209.382C591.155 209.802 592.056 210.124 592.845 210.348C593.662 210.572 594.592 210.684 595.634 210.684C599.324 210.684 601.17 208.892 601.17 205.308V202.62C600.55 203.768 599.648 204.664 598.465 205.308C597.282 205.924 595.93 206.232 594.409 206.232C592.606 206.232 591 205.812 589.591 204.972C588.211 204.104 587.127 202.9 586.338 201.36C585.549 199.82 585.155 198.042 585.155 196.026C585.155 194.01 585.535 192.232 586.296 190.692C587.084 189.124 588.183 187.92 589.591 187.08C591 186.212 592.606 185.778 594.409 185.778C595.93 185.778 597.282 186.1 598.465 186.744C599.618 187.33 600.562 188.254 601.17 189.39V188.298C601.17 187.57 601.409 186.982 601.888 186.534C602.367 186.086 603.001 185.862 603.79 185.862V185.862ZM595.803 202.158C597.493 202.158 598.803 201.612 599.733 200.52C600.691 199.428 601.17 197.93 601.17 196.026C601.17 194.094 600.691 192.582 599.733 191.49C598.803 190.398 597.493 189.852 595.803 189.852C594.141 189.852 592.831 190.398 591.873 191.49C590.916 192.582 590.437 194.094 590.437 196.026C590.437 197.93 590.916 199.428 591.873 200.52C592.831 201.612 594.141 202.158 595.803 202.158Z" fill="#9C9C9C"/>
</g>
<g clip-path="url(#clip1_12_32)">
<path d="M838.912 49.784L834.31 78.082H827.698L829.378 67.864H822.256L820.61 78.082H814L818.639 49.784H825.214L823.242 61.732H830.364L832.338 49.784H838.913H838.912V49.784ZM852.473 78.082L852.693 71.912H846.593L844.803 78.082H837.826L847.214 49.784H859.267L859.414 78.082H852.474H852.473ZM850.976 56.662L848.091 66.645H852.876L853.277 56.663H850.976V56.662ZM887.783 49.784L883.18 78.082H876.568L871.967 62.598L869.483 78.083H862.87L867.509 49.784H874.303L878.833 64.248L881.206 49.784H887.782H887.783ZM903.208 49.784C906.398 49.784 908.675 50.649 910.038 52.378C911.037 53.688 911.535 55.326 911.535 57.291C911.535 57.999 911.475 58.745 911.354 59.531L909.929 68.296C909.442 71.256 908.248 73.628 906.349 75.41C904.449 77.192 901.99 78.082 898.969 78.082H888.34L892.98 49.784H903.208V49.784ZM900.906 55.916H898.532L895.939 71.95H899.409C900.553 71.95 901.442 71.622 902.075 70.968C902.733 70.286 903.183 69.186 903.425 67.667L904.486 61.221C904.578 60.701 904.627 60.175 904.632 59.648C904.632 57.158 903.391 55.915 900.906 55.915V55.916ZM931.112 78.082H912.775L917.416 49.784H935.753L934.73 55.916H922.968L922.128 61.222H931.844L930.822 67.352H921.105L920.375 71.951H932.137L931.113 78.082H931.112ZM951.977 78.082H935.32L939.96 49.784H946.535L942.919 71.951H953L951.977 78.082ZM887.471 83.118H951.014L949.029 89H885.486L887.471 83.118V83.118ZM820.95 39H890.45L888.464 44.882H818.964L820.95 39Z" fill="#9C9C9C"/>
</g>
<g clip-path="url(#clip2_12_32)">
<path fill-rule="evenodd" clip-rule="evenodd" d="M87.935 211.123C87.8021 211.122 87.6713 211.09 87.5526 211.03C87.4338 210.971 87.3303 210.885 87.25 210.779C87.0219 210.476 86.8678 210.123 86.8 209.75C86.6916 209.275 86.6081 208.794 86.55 208.31C86.4809 207.687 86.4455 207.06 86.444 206.433C86.4234 205.055 86.4281 203.677 86.458 202.299C86.476 201.453 86.484 200.793 86.484 200.317V184.565C86.484 183.789 86.489 183.199 86.498 182.794C86.507 182.389 86.538 181.931 86.589 181.42C86.619 181.04 86.685 180.664 86.788 180.297C86.888 180.014 87.021 179.744 87.183 179.491C87.333 179.226 87.551 179.007 87.816 178.857C88.124 178.703 88.441 178.567 88.765 178.447C89.1825 178.292 89.6152 178.181 90.056 178.117C90.6303 178.033 91.2064 177.962 91.784 177.905V176.45L91.334 176H75.412L74.99 176.45V177.692C77.662 177.851 79.156 178.609 79.472 179.965C79.656 181.11 79.744 182.268 79.736 183.427V207.554C79.7802 208.807 79.727 210.062 79.577 211.307C79.504 211.501 79.397 211.679 79.261 211.835C79.0574 212.078 78.8421 212.312 78.616 212.535C78.4368 212.708 78.2653 212.889 78.102 213.077V214.002C91.689 214.002 100.099 214.09 103.332 214.267L104.467 210.435L103.755 209.932C98.505 210.593 93.225 210.99 87.936 211.122H87.935V211.123ZM113.191 200.077C113.139 200.091 113.086 200.1 113.033 200.103C112.77 200.103 112.638 200.007 112.638 199.813C112.639 198.937 112.705 198.062 112.836 197.196C112.984 196.252 113.231 195.326 113.574 194.435C113.905 193.531 114.358 192.678 114.921 191.898C115.518 191.104 116.293 190.463 117.184 190.024C118.075 189.586 119.056 189.363 120.049 189.374C120.765 189.334 121.48 189.481 122.122 189.801C122.765 190.121 123.313 190.602 123.713 191.198C124.544 192.43 124.977 193.887 124.953 195.373C124.949 195.645 124.863 195.91 124.705 196.132C124.547 196.354 124.325 196.522 124.069 196.615C122.625 197.197 121.151 197.7 119.653 198.122C117.546 198.742 115.446 199.385 113.353 200.052C113.298 200.054 113.244 200.063 113.191 200.077V200.077ZM128.851 208.322C125.686 210.242 122.953 211.202 120.653 211.202C119.095 211.236 117.565 210.783 116.276 209.907C115.077 209.102 114.124 207.982 113.521 206.67C112.928 205.354 112.626 203.925 112.638 202.482C124.133 198.906 129.933 197.117 130.038 197.117C130.494 197.023 130.902 196.77 131.188 196.401C131.473 196.033 131.617 195.574 131.593 195.109C131.624 193.812 131.32 192.528 130.71 191.383C130.153 190.359 129.328 189.505 128.324 188.912C127.311 188.317 126.213 187.881 125.068 187.617C123.826 187.336 122.556 187.198 121.283 187.207C118.999 187.171 116.734 187.627 114.641 188.542C112.796 189.339 111.165 190.562 109.883 192.11C108.674 193.607 107.741 195.307 107.128 197.131C106.492 199.008 106.171 200.976 106.178 202.958C106.178 207.028 107.278 210.076 109.474 212.102C111.46 213.952 114.264 214.876 117.884 214.876C119.96 214.855 122.003 214.358 123.856 213.423C126.088 212.311 128.226 211.02 130.249 209.563L129.672 208.535L128.852 208.322H128.851ZM164.36 180.457C163.654 178.612 162.266 177.108 160.484 176.255C158.276 175.326 155.891 174.893 153.498 174.987C151.751 174.977 150.011 175.19 148.318 175.621C146.743 176.022 145.24 176.664 143.862 177.524C142.512 178.375 141.408 179.564 140.659 180.974C139.846 182.516 139.438 184.238 139.472 185.981C139.471 187.228 139.774 188.457 140.355 189.561C140.91 190.653 141.661 191.635 142.57 192.456C143.548 193.319 144.587 194.109 145.68 194.821C146.777 195.552 147.912 196.222 149.082 196.829C150.182 197.394 151.263 197.994 152.325 198.627C153.205 199.125 154.031 199.714 154.79 200.384C156.74 202.199 157.716 203.925 157.716 205.564C157.712 206.434 157.53 207.295 157.181 208.093C156.832 208.89 156.323 209.608 155.686 210.201C155.053 210.852 154.295 211.367 153.456 211.715C152.617 212.063 151.717 212.235 150.809 212.223C149.748 212.253 148.693 212.041 147.727 211.601C146.76 211.161 145.907 210.506 145.233 209.686C143.834 208.084 143.07 206.024 143.085 203.897L142.058 203.527L136.812 209.42C138.011 211.155 139.636 212.552 141.532 213.477C143.459 214.422 145.58 214.907 147.727 214.892C149.686 214.882 151.632 214.579 153.501 213.992C155.38 213.426 157.173 212.603 158.827 211.547C160.4 210.543 161.735 209.208 162.741 207.637C163.727 206.142 164.254 204.392 164.257 202.602C164.265 201.641 164.095 200.687 163.757 199.788C163.444 198.953 163.009 198.169 162.465 197.462C161.825 196.677 161.085 195.98 160.263 195.388C159.365 194.711 158.427 194.088 157.455 193.523C156.291 192.86 155.114 192.221 153.923 191.607C153.093 191.204 152.275 190.777 151.471 190.325C150.711 189.88 149.97 189.402 149.253 188.891C148.517 188.387 147.845 187.796 147.251 187.131C146.729 186.51 146.302 185.815 145.985 185.069C145.633 184.265 145.454 183.396 145.458 182.519C145.442 181.801 145.57 181.088 145.834 180.42C146.099 179.753 146.494 179.146 146.998 178.634C147.53 178.102 148.167 177.687 148.868 177.414C149.569 177.141 150.319 177.017 151.071 177.049C152.002 177.009 152.93 177.175 153.79 177.536C154.649 177.897 155.418 178.443 156.041 179.136C157.29 180.549 158.076 182.311 158.295 184.184L159.218 184.474L164.36 180.457V180.457ZM189.998 190.592C189.527 189.767 188.845 189.083 188.021 188.61C187.206 188.144 186.326 187.801 185.411 187.593C184.429 187.375 183.425 187.269 182.419 187.276C180.5 187.249 178.592 187.576 176.79 188.241C175.244 188.802 173.828 189.67 172.625 190.791C171.507 191.874 170.58 193.138 169.883 194.529C169.166 195.929 168.639 197.417 168.314 198.956C167.994 200.512 167.835 202.097 167.84 203.686C167.834 205.036 168.025 206.38 168.406 207.674C168.776 208.927 169.351 210.11 170.106 211.176C170.902 212.275 171.97 213.15 173.205 213.713C174.623 214.361 176.168 214.682 177.726 214.651C182.665 214.651 187.305 212.475 191.646 208.124L191.119 207.357L190.46 207.199C187.244 209.683 184.273 210.925 181.549 210.925C180.529 210.941 179.521 210.71 178.61 210.251C177.784 209.841 177.066 209.244 176.511 208.508C175.96 207.751 175.512 206.924 175.179 206.05C174.833 205.177 174.581 204.269 174.428 203.342C174.288 202.468 174.218 201.584 174.217 200.699C174.223 199.574 174.32 198.452 174.507 197.343C174.714 196.108 175.023 194.893 175.43 193.709C175.8 192.552 176.442 191.5 177.302 190.643C177.681 190.259 178.132 189.955 178.63 189.749C179.129 189.542 179.663 189.438 180.202 189.441C180.922 189.401 181.64 189.563 182.273 189.909C182.906 190.254 183.431 190.77 183.787 191.397C184.602 192.866 185.003 194.528 184.947 196.207L185.87 196.577L190.853 193.618C190.812 192.556 190.519 191.518 189.998 190.592V190.592ZM199.661 198.454C199.795 197.416 200.029 196.394 200.36 195.402C200.663 194.437 201.093 193.518 201.638 192.667C202.162 191.879 202.861 191.223 203.682 190.751C204.567 190.24 205.574 189.98 206.595 189.998C207.703 189.97 208.796 190.258 209.745 190.83C210.627 191.379 211.336 192.167 211.788 193.103C212.265 194.07 212.61 195.096 212.815 196.155C213.032 197.295 213.139 198.455 213.132 199.617C213.132 200.674 213.123 201.555 213.105 202.259C213.077 203.107 213.016 203.954 212.921 204.797C212.843 205.627 212.698 206.448 212.486 207.254C212.279 207.964 212.01 208.654 211.682 209.316C211.38 209.971 210.944 210.556 210.403 211.033C209.844 211.489 209.211 211.847 208.531 212.09C207.707 212.385 206.836 212.528 205.961 212.513C204.997 212.525 204.053 212.238 203.258 211.693C202.483 211.173 201.838 210.482 201.374 209.672C200.887 208.8 200.506 207.873 200.24 206.911C199.96 205.964 199.757 204.996 199.633 204.016C199.531 203.17 199.478 202.318 199.475 201.466C199.474 200.459 199.537 199.453 199.661 198.454V198.454ZM196.392 212.117C198.307 213.861 201.348 214.733 205.514 214.733C207.054 214.743 208.59 214.566 210.088 214.204C211.497 213.854 212.84 213.278 214.066 212.5C215.298 211.723 216.375 210.723 217.243 209.553C218.192 208.226 218.897 206.74 219.326 205.166C219.858 203.257 220.115 201.282 220.091 199.3C220.142 197.704 219.846 196.117 219.222 194.647C218.598 193.178 217.662 191.862 216.479 190.79C214.281 188.818 211.091 187.831 206.909 187.831C202.726 187.831 199.281 189.126 196.574 191.716C195.245 192.972 194.196 194.495 193.497 196.184C192.797 197.874 192.462 199.692 192.514 201.52C192.514 206.242 193.805 209.774 196.389 212.117H196.392V212.117ZM237.65 191.187C239.056 191.187 240.058 191.469 240.656 192.033C241.213 192.713 241.565 193.539 241.67 194.413C241.891 195.443 242.028 196.491 242.079 197.544C242.114 198.469 242.132 199.663 242.132 201.125C242.131 203.023 242.118 204.922 242.093 206.82C242.084 207.392 242.088 208.066 242.105 208.842C242.11 209.42 242.145 209.998 242.211 210.572C242.264 210.952 242.334 211.366 242.422 211.814C242.483 212.19 242.608 212.551 242.791 212.884C242.949 213.149 243.143 213.39 243.369 213.599C244.16 214.317 245.201 214.696 246.268 214.655C247.587 214.655 249.098 213.985 250.803 212.647C252.226 211.464 253.581 210.202 254.863 208.867L254.257 207.967H253.624C252.593 208.794 251.332 209.283 250.013 209.368C249.734 209.384 249.454 209.343 249.191 209.248C248.928 209.152 248.687 209.004 248.483 208.813C248.301 208.669 248.145 208.495 248.021 208.299C247.876 207.953 247.783 207.588 247.745 207.215C247.644 206.457 247.6 205.693 247.613 204.929C247.613 204.348 247.644 203.409 247.705 202.115C247.754 201.195 247.785 200.274 247.798 199.353V197.767C247.815 196.058 247.811 194.874 247.785 194.212C247.732 193.309 247.631 192.409 247.481 191.517C247.415 190.676 247.134 189.866 246.664 189.165C246.2 188.661 245.645 188.249 245.029 187.95C244.192 187.545 243.269 187.35 242.34 187.381C239.247 187.381 235.661 188.65 231.584 191.187L230.951 190.949C230.917 189.977 230.601 189.036 230.042 188.241C229.523 187.561 228.631 187.223 227.366 187.223C226.608 187.232 225.856 187.362 225.138 187.606C224.303 187.886 223.506 188.268 222.764 188.742C221.964 189.245 221.27 189.712 220.681 190.143C220.092 190.574 219.411 191.098 218.638 191.715L219.613 193.01C219.792 192.894 219.973 192.78 220.154 192.667C220.461 192.473 220.729 192.315 220.958 192.191C221.186 192.068 221.459 191.923 221.775 191.755C222.058 191.601 222.354 191.472 222.659 191.369C222.892 191.289 223.136 191.244 223.383 191.237C223.688 191.23 223.989 191.307 224.253 191.462C224.521 191.639 224.723 191.899 224.831 192.202C224.963 192.522 225.077 192.847 225.173 193.179C225.281 193.626 225.343 194.082 225.358 194.541C225.394 195.141 225.415 195.625 225.422 195.994C225.43 196.363 225.434 196.918 225.435 197.659V198.109C225.435 199.835 225.303 205.12 225.04 213.964L225.699 214.334L231.631 212.616C231.455 211.859 231.323 209.472 231.235 205.456C231.148 201.528 231.105 197.598 231.107 193.669C234.165 192.013 236.344 191.185 237.645 191.185L237.65 191.187V191.187ZM263.223 200.197C263.172 200.212 263.119 200.222 263.065 200.225C262.802 200.225 262.67 200.128 262.669 199.935C262.67 199.058 262.736 198.184 262.868 197.318C263.016 196.374 263.263 195.448 263.605 194.556C263.936 193.653 264.388 192.799 264.95 192.019C265.547 191.225 266.322 190.583 267.213 190.145C268.104 189.706 269.085 189.484 270.078 189.495C270.794 189.455 271.509 189.602 272.151 189.922C272.794 190.242 273.342 190.723 273.742 191.319C274.573 192.551 275.006 194.008 274.981 195.494C274.977 195.766 274.891 196.031 274.733 196.252C274.575 196.474 274.354 196.643 274.098 196.736C272.655 197.317 271.181 197.82 269.683 198.243C267.576 198.863 265.475 199.506 263.382 200.173C263.329 200.176 263.276 200.184 263.224 200.198H263.223V200.197ZM278.883 208.443C275.718 210.364 272.985 211.324 270.684 211.323C269.126 211.357 267.596 210.904 266.307 210.029C265.108 209.224 264.155 208.104 263.553 206.792C262.959 205.475 262.658 204.046 262.669 202.602C274.164 199.027 279.964 197.239 280.07 197.239C280.526 197.145 280.934 196.891 281.22 196.522C281.505 196.154 281.649 195.695 281.625 195.23C281.656 193.933 281.352 192.649 280.742 191.504C280.185 190.48 279.36 189.626 278.356 189.033C277.343 188.438 276.245 188.002 275.1 187.738C273.858 187.457 272.588 187.319 271.314 187.328C269.031 187.293 266.766 187.748 264.674 188.663C262.829 189.46 261.198 190.683 259.916 192.231C258.707 193.728 257.774 195.428 257.161 197.252C256.525 199.128 256.204 201.097 256.212 203.079C256.212 207.149 257.31 210.196 259.507 212.223C261.493 214.073 264.296 214.997 267.917 214.997C269.993 214.976 272.036 214.478 273.889 213.544C276.121 212.432 278.259 211.142 280.282 209.685L279.705 208.656L278.883 208.443Z" fill="#9C9C9C"/>
</g>
<g clip-path="url(#clip3_12_32)">
<path d="M498.953 81.52V46H489.916L471.021 73.408L467.832 69.424C473.534 68.56 476.723 63.568 476.723 58.24C476.723 53.152 473.921 48.88 470.151 47.248C468.267 46.432 465.464 46 461.743 46H450V81.52H458.747V70.048H458.843L467.107 81.52H476.337L479.478 76.384H489.819V81.52H498.953V81.52ZM458.747 63.856V53.968H462.226C465.657 53.968 467.977 55.696 467.977 58.768C467.977 62.032 465.802 63.856 462.178 63.856H458.747ZM489.819 69.184H483.827L489.723 59.344H489.819V69.184ZM535.605 81.52V46H526.858L527.244 68.464L513.327 46H505.45V81.52H514.197L513.955 59.824L527.679 81.52H535.605ZM561.98 81.52V73.552H550.865V67.456H561.641V59.488H550.865V53.968H561.98V46H542.118V81.52H561.98V81.52ZM598.285 81.52L585.673 63.712L597.512 46H587.944L577.844 61.984H577.747V46H568.614V81.52H577.747V66.16H577.844L587.606 81.52H598.285V81.52Z" fill="#9C9C9C"/>
</g>
<g clip-path="url(#clip4_12_32)">
<path d="M1170.38 215.014C1167.06 215.014 1164.52 214.446 1162.75 213.31C1161.01 212.142 1160.14 210.437 1160.14 208.196C1160.14 207.06 1160.52 206.128 1161.27 205.402C1162.07 204.645 1163.08 204.266 1164.31 204.266C1165.04 204.298 1165.59 204.486 1165.97 204.834C1166.35 205.15 1166.54 205.45 1166.54 205.734C1166.54 205.765 1166.38 205.876 1166.07 206.065C1165.75 206.255 1165.47 206.539 1165.21 206.917C1164.96 207.297 1164.83 207.817 1164.83 208.48C1164.83 209.964 1165.28 211.116 1166.16 211.937C1167.08 212.726 1168.48 213.12 1170.38 213.12C1171.68 213.12 1172.82 212.868 1173.8 212.363C1174.78 211.858 1175.52 211.195 1176.03 210.374C1176.56 209.522 1176.83 208.638 1176.83 207.722C1176.83 206.586 1176.5 205.608 1175.84 204.787C1175.19 203.955 1174.38 203.263 1173.47 202.751C1172.52 202.183 1171.22 201.535 1169.58 200.809C1167.68 199.957 1166.15 199.184 1164.98 198.489C1163.8 197.79 1162.78 196.855 1161.99 195.743C1161.16 194.575 1160.75 193.139 1160.75 191.434C1160.75 188.688 1161.69 186.636 1163.55 185.279C1165.45 183.921 1167.93 183.243 1171 183.243C1173.4 183.243 1175.49 183.748 1177.26 184.758C1179.06 185.768 1179.96 187.252 1179.96 189.208C1179.96 190.345 1179.57 191.292 1178.78 192.05C1178.02 192.776 1177.02 193.139 1175.79 193.139C1175.06 193.107 1174.51 192.933 1174.13 192.618C1173.75 192.271 1173.56 191.955 1173.56 191.671C1173.56 191.639 1173.77 191.529 1174.18 191.339C1174.62 191.15 1175 190.866 1175.31 190.487C1175.66 190.108 1175.84 189.587 1175.84 188.925C1175.84 187.757 1175.38 186.841 1174.46 186.178C1173.58 185.515 1172.44 185.184 1171.05 185.184C1169.12 185.184 1167.65 185.642 1166.64 186.557C1165.65 187.441 1165.16 188.546 1165.16 189.872C1165.16 190.976 1165.46 191.908 1166.07 192.665C1166.67 193.391 1167.63 194.117 1168.96 194.843C1170.11 195.449 1171.28 196.017 1172.47 196.548C1174.49 197.463 1176.09 198.3 1177.26 199.058C1178.46 199.819 1179.48 200.838 1180.25 202.041C1181.07 203.271 1181.48 204.803 1181.48 206.633C1181.48 208.212 1180.98 209.648 1179.96 210.943C1178.98 212.205 1177.64 213.199 1175.93 213.925C1174.26 214.651 1172.41 215.015 1170.38 215.015V215.014ZM1194.39 214.636C1192.24 214.636 1190.54 213.988 1189.27 212.694C1188.01 211.4 1187.37 209.695 1187.37 207.58V198.82C1187.37 198 1187.34 197.4 1187.28 197.021C1187.25 196.643 1187.06 196.311 1186.71 196.027C1186.36 195.743 1185.78 195.601 1184.96 195.601C1184.58 195.601 1184.29 195.554 1184.1 195.459C1183.91 195.333 1183.82 195.064 1183.82 194.654C1183.82 194.464 1183.88 194.291 1184.01 194.134C1184.13 193.944 1184.32 193.834 1184.58 193.802C1186.57 193.517 1188.28 193.107 1189.7 192.57C1190.14 192.413 1190.5 192.318 1190.79 192.286H1190.93C1191.44 192.286 1191.69 192.586 1191.69 193.186V207.533C1191.69 208.985 1192.15 210.106 1193.07 210.895C1193.96 211.642 1195.08 212.046 1196.24 212.031C1197.73 212.031 1198.99 211.668 1200.04 210.942C1201.08 210.216 1201.78 209.49 1202.13 208.764V198.821C1202.13 198 1202.09 197.401 1202.03 197.021C1202 196.643 1201.81 196.311 1201.46 196.027C1201.11 195.743 1200.53 195.601 1199.71 195.601C1199.33 195.601 1199.04 195.554 1198.85 195.459C1198.66 195.333 1198.57 195.064 1198.57 194.654C1198.57 194.464 1198.63 194.291 1198.76 194.134C1198.88 193.944 1199.07 193.834 1199.33 193.802C1201.32 193.517 1203.03 193.107 1204.45 192.57C1204.89 192.413 1205.26 192.318 1205.54 192.286H1205.68C1206.19 192.286 1206.44 192.586 1206.44 193.186V209.57C1206.44 211.433 1207.69 212.364 1210.19 212.364C1210.73 212.364 1211 212.664 1211 213.264C1211 213.705 1210.73 213.974 1210.19 214.068L1202.55 214.589C1202.33 214.589 1202.2 214.51 1202.17 214.353C1202.14 214.226 1202.13 213.99 1202.13 213.643V210.99H1202.03C1201.31 211.672 1200.56 212.335 1199.8 212.978C1199.23 213.42 1198.49 213.799 1197.57 214.115C1196.69 214.462 1195.63 214.635 1194.39 214.635V214.636ZM1213.59 214.21C1213.48 214.21 1213.37 214.184 1213.27 214.134C1213.17 214.085 1213.09 214.013 1213.02 213.925C1212.89 213.736 1212.83 213.515 1212.83 213.263C1212.86 212.853 1212.96 212.615 1213.12 212.553C1213.27 212.458 1213.56 212.41 1213.97 212.41C1214.79 212.41 1215.38 212.268 1215.72 211.984C1216.07 211.7 1216.26 211.368 1216.29 210.99C1216.36 210.61 1216.39 210.011 1216.39 209.19V198.347C1216.39 197.527 1216.36 196.927 1216.29 196.547C1216.26 196.169 1216.07 195.837 1215.72 195.554C1215.38 195.27 1214.79 195.127 1213.97 195.127C1213.59 195.127 1213.31 195.08 1213.12 194.985C1212.93 194.859 1212.83 194.591 1212.83 194.18C1212.83 193.991 1212.89 193.817 1213.02 193.66C1213.15 193.47 1213.34 193.36 1213.59 193.328C1215.65 193.012 1217.34 192.602 1218.67 192.097C1219.2 191.939 1219.57 191.844 1219.76 191.813H1219.9C1220.4 191.813 1220.66 192.113 1220.66 192.713V195.648H1220.8C1221.91 194.543 1223.03 193.675 1224.17 193.044C1225.31 192.381 1226.33 192.05 1227.25 192.05C1228.29 192.05 1229.12 192.444 1229.72 193.233C1230.35 193.991 1230.67 194.875 1230.67 195.885C1230.67 196.769 1230.4 197.558 1229.86 198.252C1229.32 198.947 1228.58 199.294 1227.63 199.294C1227.22 199.301 1226.81 199.204 1226.44 199.01C1226.13 198.82 1225.95 198.663 1225.92 198.537C1225.95 198.474 1226.11 198.284 1226.4 197.968C1226.68 197.621 1226.82 197.227 1226.82 196.785C1226.82 196.216 1226.67 195.759 1226.35 195.412C1226.06 195.064 1225.67 194.891 1225.16 194.891C1224.63 194.891 1223.95 195.159 1223.12 195.696C1222.3 196.201 1221.5 196.848 1220.71 197.637V209.19C1220.71 210.011 1220.74 210.61 1220.8 210.99C1220.86 211.368 1221.07 211.7 1221.42 211.984C1221.76 212.268 1222.35 212.41 1223.17 212.41H1223.46C1223.71 212.41 1223.9 212.458 1224.03 212.552C1224.15 212.647 1224.23 212.884 1224.26 213.262C1224.26 213.515 1224.2 213.736 1224.07 213.925C1223.95 214.115 1223.76 214.21 1223.5 214.21C1221.84 214.12 1220.18 214.072 1218.52 214.067C1217.1 214.067 1215.46 214.115 1213.59 214.209V214.21ZM1287.26 214.636C1285.11 214.636 1283.19 214.13 1281.52 213.12C1279.84 212.079 1278.53 210.721 1277.58 209.048C1276.68 207.393 1276.2 205.536 1276.21 203.65C1276.21 201.283 1276.76 199.231 1277.87 197.495C1278.97 195.727 1280.38 194.385 1282.09 193.47C1283.8 192.523 1285.52 192.05 1287.26 192.05C1289.41 192.05 1291.32 192.57 1293 193.612C1294.64 194.589 1295.99 195.997 1296.89 197.684C1297.82 199.311 1298.31 201.157 1298.31 203.034C1298.31 205.402 1297.74 207.47 1296.6 209.238C1295.5 210.974 1294.09 212.315 1292.38 213.262C1290.67 214.178 1288.97 214.636 1287.26 214.636V214.636ZM1287.26 212.884C1289.41 212.884 1290.97 211.968 1291.95 210.137C1292.97 208.307 1293.47 205.939 1293.47 203.035C1293.47 200.32 1292.95 198.111 1291.91 196.405C1290.89 194.67 1289.34 193.802 1287.26 193.802C1285.08 193.802 1283.5 194.702 1282.51 196.501C1281.53 198.3 1281.04 200.651 1281.04 203.556C1281.04 206.27 1281.55 208.512 1282.56 210.279C1283.57 212.016 1285.14 212.884 1287.26 212.884V212.884ZM1310.26 214.872C1308.71 214.872 1307.38 214.304 1306.28 213.168C1305.17 212.031 1304.62 210.406 1304.62 208.291V194.37L1301.87 194.465C1301.77 194.466 1301.68 194.445 1301.6 194.404C1301.52 194.362 1301.45 194.302 1301.39 194.228C1301.27 194.047 1301.2 193.832 1301.2 193.612C1301.2 193.328 1301.25 193.092 1301.34 192.902C1301.47 192.681 1301.64 192.555 1301.87 192.523C1302.97 192.303 1303.83 191.955 1304.43 191.482C1305.06 190.976 1305.52 190.44 1305.8 189.872C1306.09 189.272 1306.44 188.372 1306.85 187.172C1307 186.762 1307.35 186.557 1307.89 186.557C1308.11 186.557 1308.33 186.62 1308.55 186.747C1308.77 186.841 1308.89 186.999 1308.89 187.22L1308.55 192.618L1314.1 192.286H1314.2C1314.61 192.286 1314.81 192.586 1314.81 193.186C1314.81 193.533 1314.75 193.865 1314.62 194.18C1314.53 194.465 1314.4 194.607 1314.25 194.607L1308.93 194.465V208.859C1308.93 209.901 1309.14 210.769 1309.55 211.463C1309.99 212.158 1310.7 212.505 1311.68 212.505C1312.66 212.505 1313.53 212.331 1314.29 211.984C1314.7 211.826 1314.96 211.747 1315.05 211.747C1315.27 211.747 1315.45 211.842 1315.57 212.031C1315.7 212.189 1315.83 212.411 1315.95 212.694C1315.99 212.768 1316 212.85 1316 212.931C1316 213.057 1315.91 213.199 1315.72 213.357C1314.8 213.957 1313.93 214.352 1313.11 214.541C1312.32 214.761 1311.37 214.872 1310.26 214.872V214.872ZM1233.6 213.925C1233.72 214.115 1233.91 214.209 1234.17 214.209C1235.81 214.119 1237.45 214.072 1239.1 214.067C1241.22 214.067 1243.19 214.115 1245.03 214.209C1245.13 214.211 1245.24 214.186 1245.33 214.137C1245.42 214.087 1245.5 214.014 1245.55 213.925C1245.68 213.735 1245.74 213.515 1245.74 213.262C1245.71 212.884 1245.63 212.647 1245.5 212.552C1245.41 212.458 1245.22 212.41 1244.93 212.41H1244.65C1243.61 212.41 1242.86 212.331 1242.42 212.173C1241.98 212.016 1241.68 211.731 1241.52 211.321C1241.36 210.879 1241.28 210.169 1241.28 209.191V194.463H1246.31C1246.42 194.463 1246.53 194.437 1246.63 194.387C1246.73 194.338 1246.81 194.267 1246.88 194.179C1247.04 193.99 1247.12 193.769 1247.12 193.516C1247.08 193.138 1246.99 192.901 1246.83 192.806C1246.7 192.68 1246.5 192.616 1246.21 192.616H1241.28V189.776C1241.28 188.261 1241.34 186.935 1241.47 185.798C1241.59 184.657 1241.96 183.556 1242.56 182.578C1243.16 181.6 1244.1 181.111 1245.36 181.111C1245.51 181.111 1245.65 181.119 1245.78 181.136C1245.76 180.606 1245.8 180.075 1245.89 179.551C1245.82 179.549 1245.76 179.548 1245.69 179.548C1242.91 179.611 1240.74 180.668 1239.19 182.721C1237.68 184.741 1236.92 187.377 1236.92 190.628V192.617H1234.07C1233.66 192.617 1233.38 192.664 1233.22 192.759C1233.06 192.822 1232.96 193.075 1232.93 193.516C1232.93 193.769 1233 193.99 1233.12 194.179C1233.28 194.369 1233.49 194.464 1233.74 194.464H1236.92V209.19C1236.92 210.043 1236.89 210.658 1236.82 211.037C1236.79 211.384 1236.6 211.7 1236.25 211.984C1235.91 212.268 1235.32 212.41 1234.5 212.41C1234.09 212.41 1233.8 212.458 1233.64 212.552C1233.52 212.615 1233.44 212.852 1233.41 213.262C1233.41 213.515 1233.47 213.736 1233.6 213.925V213.925Z" fill="#9C9C9C"/>
<path fill-rule="evenodd" clip-rule="evenodd" d="M1258.95 180.865C1258.95 181.556 1258.81 182.241 1258.55 182.879C1258.28 183.518 1257.9 184.098 1257.41 184.586C1256.92 185.075 1256.34 185.462 1255.7 185.726C1255.06 185.99 1254.37 186.126 1253.68 186.125C1252.29 186.126 1250.95 185.573 1249.96 184.586C1248.97 183.6 1248.41 182.261 1248.41 180.865C1248.41 180.173 1248.55 179.489 1248.81 178.85C1249.08 178.211 1249.47 177.631 1249.96 177.143C1250.45 176.654 1251.03 176.266 1251.67 176.002C1252.31 175.738 1252.99 175.602 1253.68 175.603C1254.37 175.602 1255.06 175.738 1255.7 176.002C1256.34 176.266 1256.92 176.654 1257.41 177.142C1257.9 177.631 1258.29 178.211 1258.55 178.85C1258.82 179.489 1258.95 180.173 1258.95 180.865V180.865ZM1253.68 183.495C1254.03 183.495 1254.37 183.428 1254.69 183.296C1255.01 183.164 1255.3 182.97 1255.54 182.726C1255.79 182.482 1255.98 182.192 1256.12 181.872C1256.25 181.553 1256.32 181.211 1256.32 180.865C1256.32 180.519 1256.25 180.177 1256.12 179.857C1255.98 179.538 1255.79 179.248 1255.54 179.003C1255.3 178.759 1255.01 178.565 1254.69 178.433C1254.37 178.301 1254.03 178.234 1253.68 178.234C1252.98 178.234 1252.31 178.511 1251.82 179.004C1251.33 179.497 1251.05 180.166 1251.05 180.864C1251.05 181.562 1251.33 182.232 1251.82 182.725C1252.31 183.218 1252.98 183.495 1253.68 183.495V183.495ZM1251.37 188.414V213.784C1251.37 214.067 1251.45 214.288 1251.61 214.446C1251.77 214.636 1251.99 214.73 1252.27 214.73C1252.56 214.73 1252.8 214.604 1252.99 214.352C1253.18 214.131 1253.35 213.799 1253.51 213.357C1253.67 212.915 1253.81 212.568 1253.93 212.315H1254.17C1256.23 213.862 1258.66 214.635 1261.48 214.635C1263.37 214.635 1265.16 214.13 1266.84 213.12C1268.51 212.11 1269.84 210.737 1270.82 209C1271.83 207.233 1272.34 205.292 1272.34 203.177C1272.34 201.03 1271.9 199.121 1271.01 197.447C1270.16 195.743 1268.97 194.417 1267.45 193.47C1265.93 192.523 1264.24 192.05 1262.38 192.05C1261.24 192.05 1260.08 192.286 1258.91 192.76C1257.78 193.202 1256.75 193.88 1255.83 194.796H1255.69V188.5C1254.27 188.869 1252.78 188.839 1251.37 188.414V188.414ZM1265.7 210.421C1264.53 212.158 1262.98 213.026 1261.05 213.026C1260.04 213.026 1259.14 212.805 1258.35 212.363C1257.59 211.921 1256.97 211.4 1256.5 210.8C1256.05 210.169 1255.78 209.6 1255.69 209.096V196.596C1257.05 195.143 1258.72 194.417 1260.72 194.417C1262.96 194.417 1264.65 195.301 1265.79 197.069C1266.93 198.805 1267.5 200.904 1267.5 203.366C1267.5 206.302 1266.9 208.654 1265.7 210.421V210.421ZM1128.7 171.367C1129.04 171.128 1129.44 171 1129.85 171C1130.26 171 1130.66 171.128 1131 171.367C1139.56 177.471 1143.44 184.788 1143.68 195.287C1143.8 200.3 1143.31 204.89 1141.84 208.855C1140.33 212.823 1137.65 216.488 1133.7 219.584C1133.45 219.775 1133.17 219.905 1132.86 219.965C1132.55 220.024 1132.24 220.01 1131.94 219.924C1130.73 219.577 1130.52 218.145 1129.85 217.253C1129.18 218.145 1128.97 219.576 1127.76 219.923C1127.46 220.009 1127.14 220.022 1126.84 219.963C1126.53 219.904 1126.25 219.774 1126 219.583C1122.05 216.488 1119.37 212.823 1117.86 208.855C1116.39 204.89 1115.9 200.3 1116.02 195.287C1116.26 184.788 1120.14 177.47 1128.7 171.367ZM1133.13 215.062C1135.6 212.792 1137.09 210.317 1138.14 207.47C1139.47 203.99 1139.85 200.144 1139.73 195.379C1139.54 187.192 1137.62 181.865 1131.81 176.919V191.387C1134.08 191.971 1135.1 194.197 1135.1 196.647C1135.1 199.099 1134.08 201.325 1131.81 201.909V213.746C1131.81 213.746 1132.87 214.719 1133.13 215.062ZM1126.54 215.062C1124.07 212.792 1122.61 210.317 1121.56 207.47C1120.23 203.99 1119.85 200.144 1119.97 195.379C1120.16 187.209 1122.07 181.859 1127.86 176.919V191.387C1125.58 191.971 1124.56 194.197 1124.56 196.647C1124.56 199.099 1125.58 201.325 1127.86 201.909V213.746C1127.86 213.746 1126.79 214.731 1126.54 215.062ZM1129.83 194.017C1129.13 194.016 1128.46 194.293 1127.97 194.786C1127.48 195.28 1127.2 195.949 1127.2 196.647C1127.2 198.101 1128.38 199.278 1129.83 199.278C1130.53 199.279 1131.2 199.002 1131.69 198.509C1132.19 198.015 1132.47 197.346 1132.47 196.648C1132.47 195.195 1131.29 194.018 1129.83 194.018V194.017Z" fill="#9C9C9C"/>
</g>
<g clip-path="url(#clip5_12_32)">
<path d="M806.644 211.955C805.471 211.987 804.308 211.722 803.264 211.186C802.225 210.654 801.34 209.866 800.69 208.896C798.645 210.775 795.995 211.86 793.22 211.955C788.233 211.955 785.53 208.491 786.443 203.525C787.137 199.791 790.242 196.049 791.11 193.045C789.43 192.037 786.936 191.335 785.767 193.395L785 192.936C785.612 190.678 787.091 189.176 789.228 189.176C791.365 189.176 792.945 190.426 794.982 189.275H796.607C795.74 193.773 793.548 197.371 792.379 203.669C791.667 207.529 792.991 209.283 795.229 209.283C796.882 209.08 798.403 208.276 799.502 207.024C798.61 204.828 798.16 202.477 798.178 200.106C798.178 194.636 800.726 188.87 805 188.87C807.192 188.87 808.817 190.372 808.817 193.935C808.817 197.497 806.626 203.012 803.831 206.475C803.982 207.3 804.421 208.047 805.071 208.588C805.721 209.128 806.542 209.428 807.393 209.436C811.466 209.436 814.315 203.416 814.315 197.848C814.315 192.28 811.868 192.531 812.078 190.651C812.097 190.416 812.162 190.187 812.27 189.978C812.377 189.768 812.525 189.581 812.705 189.429C813.069 189.119 813.543 188.964 814.023 188.996C815.293 188.996 816.963 190.579 816.963 197.003C816.963 205.189 812.543 211.955 806.643 211.955H806.644ZM805.722 191.695C804.452 191.695 803.228 196.31 803.073 201.078C803.014 202.098 803.032 203.12 803.128 204.137C805.043 201.018 806.212 197.499 806.543 193.854C806.534 192.234 806.233 191.694 805.721 191.694L805.722 191.695ZM825.329 211.748C824.796 211.802 824.258 211.741 823.752 211.567C823.248 211.395 822.787 211.114 822.402 210.745C822.02 210.378 821.723 209.931 821.534 209.436C821.345 208.943 821.269 208.414 821.31 207.888C821.31 205.684 824.215 194.699 824.215 192.891C824.215 192.037 824.014 191.533 823.247 191.533C822.391 191.67 821.594 192.055 820.954 192.639V191.083C822.284 189.877 824 189.185 825.794 189.131C826.33 189.083 826.87 189.152 827.377 189.331C827.883 189.511 828.343 189.796 828.726 190.169C829.108 190.541 829.404 190.991 829.592 191.489C829.779 191.985 829.855 192.516 829.812 193.044C829.812 195.248 826.909 206.188 826.909 207.987C826.909 208.842 827.109 209.346 827.877 209.346C828.721 209.206 829.513 208.842 830.169 208.293V209.795C828.845 211.009 827.125 211.703 825.329 211.748ZM828.89 179.999C829.288 179.987 829.684 180.059 830.051 180.213C830.417 180.367 830.746 180.597 831.012 180.888C831.279 181.177 831.479 181.521 831.597 181.897C831.715 182.272 831.748 182.668 831.694 183.058C831.596 183.89 831.197 184.657 830.573 185.216C829.944 185.78 829.133 186.1 828.288 186.117C827.89 186.13 827.495 186.057 827.128 185.903C826.762 185.75 826.434 185.52 826.166 185.228C825.899 184.939 825.699 184.595 825.581 184.22C825.463 183.844 825.43 183.448 825.484 183.058C825.582 182.226 825.981 181.459 826.605 180.9C827.235 180.337 828.045 180.017 828.89 180V179.999ZM840.196 207.034C839.941 208.392 840.096 209.337 841.064 209.337C841.911 209.207 842.705 208.842 843.356 208.284L843.447 209.795C842.118 211.002 840.401 211.694 838.607 211.748C835.447 211.748 834.224 209.49 834.69 206.683L837.795 189.275C838.827 183.463 838.47 182.698 835.31 182.698L835.511 181.295L845.036 180.053L840.196 207.033V207.034ZM866.982 206.988C866.726 208.347 866.826 209.346 867.849 209.346C868.698 209.187 869.49 208.805 870.142 208.239V209.795C868.821 211.015 867.1 211.71 865.302 211.748C864.393 211.814 863.491 211.541 862.771 210.982C862.056 210.429 861.577 209.626 861.429 208.734C860.662 209.733 859.679 210.543 858.552 211.105C857.42 211.67 856.174 211.973 854.909 211.991C848.854 211.991 846.306 206.728 847.475 200.403C848.644 194.079 854.095 188.915 860.26 188.915C861.717 188.885 863.159 189.222 864.452 189.895L864.607 189.095C865.813 182.905 865.256 182.698 862.096 182.698L862.251 181.295L871.821 180.053L866.981 206.989L866.982 206.988ZM860.415 191.182C856.899 191.182 854.562 195.293 853.639 200.358C852.671 205.675 853.283 209.355 856.589 209.355C858.826 209.355 861.374 206.655 862.141 202.535L864.023 192.1C862.935 191.451 861.681 191.132 860.415 191.182V191.182ZM883.073 211.999C875.995 211.999 874.059 206.979 874.927 202.166L877.237 189.275C878.306 183.455 877.95 182.653 874.79 182.653L874.99 181.25L884.543 180.053L882.607 190.984C884.101 189.708 885.986 188.981 887.95 188.924C894.114 188.924 897.009 194.088 895.895 200.412C894.781 206.737 889.11 212 883.073 212V211.999ZM886.379 191.308C885.352 191.328 884.358 191.669 883.534 192.282C882.717 192.891 882.114 193.743 881.813 194.717L880.388 202.814C879.52 207.627 881.256 209.588 883.448 209.588C886.653 209.588 888.644 206.08 889.712 200.313C890.662 195.149 889.795 191.335 886.37 191.335L886.379 191.308ZM905.548 203.327C905.548 207.187 907.429 209.247 911.027 209.247C912.854 209.247 915.511 207.997 917.192 206.341L917.904 207.942C916.693 209.205 915.242 210.214 913.637 210.91C912.025 211.609 910.291 211.982 908.534 212.008C903.192 212.008 899.575 208.095 899.575 202.778C899.575 194.906 906.196 188.933 912.562 188.933C916.434 188.933 918.616 191.038 918.616 193.494C918.571 197.308 914.9 201.591 905.548 203.327V203.327ZM912.114 191.236C909.21 191.236 906.416 195.401 905.648 201.366C911.502 199.962 913.995 196.049 914.05 193.539C914.041 192.136 913.374 191.236 912.105 191.236H912.114V191.236ZM939.393 211.748C938.484 211.814 937.582 211.541 936.862 210.982C936.148 210.428 935.669 209.626 935.521 208.734C934.783 209.732 933.822 210.545 932.715 211.107C931.603 211.673 930.376 211.975 929.128 211.99C923.174 211.99 920.626 206.728 921.822 200.403C923.018 194.079 928.379 188.923 934.562 188.923C935.872 188.916 937.17 189.174 938.379 189.68H944.187L941.073 206.988C940.817 208.347 940.918 209.346 941.941 209.346C942.79 209.187 943.581 208.805 944.233 208.239V209.795C942.912 211.015 941.191 211.71 939.393 211.748V211.748ZM934.708 191.182C931.292 191.182 928.9 195.293 927.986 200.358C927.018 205.675 927.685 209.355 930.726 209.355C933.064 209.355 935.566 206.548 936.279 202.535L938.16 192.1C937.133 191.451 935.931 191.13 934.717 191.182H934.708V191.182ZM962.005 194.843C960.626 194.843 960.269 193.791 959.868 192.684C959.731 192.125 959.402 191.631 958.939 191.288C958.472 190.943 957.9 190.769 957.32 190.795C956.566 190.755 955.824 190.995 955.237 191.469C954.654 191.938 954.27 192.61 954.16 193.35C954.005 194.709 955.027 195.86 956.963 197.515L959.557 199.62C960.521 200.338 961.269 201.306 961.721 202.42C962.17 203.53 962.303 204.74 962.105 205.918C961.447 209.678 958.288 211.99 954.059 211.99C948.963 211.99 945.712 209.03 946.068 207.024C946.151 206.497 946.421 206.014 946.831 205.666C947.241 205.316 947.764 205.122 948.306 205.117C949.63 205.117 950.132 206.116 950.543 207.42C950.807 208.17 951.314 208.812 951.986 209.248C952.66 209.684 953.459 209.889 954.26 209.831C955.052 209.869 955.829 209.613 956.444 209.113C957.053 208.617 957.454 207.911 957.566 207.133C957.767 205.333 956.653 204.227 954.562 202.364L952.014 200.16C951.118 199.487 950.418 198.587 949.986 197.553C949.556 196.524 949.411 195.399 949.566 194.295C950.023 191.884 952.306 188.897 957.557 188.897C961.63 188.897 964.178 191.155 963.95 192.963C963.924 193.462 963.71 193.932 963.35 194.278C962.99 194.626 962.509 194.828 962.005 194.843V194.843ZM980.644 191.695H975.703L973.311 205.027C972.799 207.789 973.21 209.04 974.735 209.04C975.548 209.04 976.826 208.59 978.653 206.737L978.753 208.689C977.923 209.657 976.895 210.434 975.738 210.969C974.576 211.507 973.312 211.79 972.032 211.801C968.571 211.801 966.836 209.391 967.658 204.928L970.05 191.695H966.187L966.489 189.635H970.388L971.411 183.67H977.11L976.041 189.634H980.982L980.644 191.694V191.695Z" fill="#9C9C9C"/>
</g>
<rect y="129" width="1400" height="2" fill="#EDEDED"/>
<rect x="349" width="2" height="260" fill="#EDEDED"/>
<rect x="699" width="2" height="260" fill="#EDEDED"/>
<rect x="1049" width="2" height="260" fill="#EDEDED"/>
<defs>
<clipPath id="clip0_12_32">
<rect width="165" height="38" fill="white" transform="translate(442 178)"/>
</clipPath>
<clipPath id="clip1_12_32">
<rect width="139" height="50" fill="white" transform="translate(814 39)"/>
</clipPath>
<clipPath id="clip2_12_32">
<rect width="208" height="41" fill="white" transform="translate(74 175)"/>
</clipPath>
<clipPath id="clip3_12_32">
<rect width="149" height="36" fill="white" transform="translate(450 46)"/>
</clipPath>
<clipPath id="clip4_12_32">
<rect width="200" height="49" fill="white" transform="translate(1116 171)"/>
</clipPath>
<clipPath id="clip5_12_32">
<rect width="196" height="34" fill="white" transform="translate(785 179)"/>
</clipPath>
</defs>
</svg>
